<svg width="70" height="25" viewBox="0 0 70 25" fill="none" xmlns="http://www.w3.org/2000/svg">
<path d="M15.9118 19.1447C14.6614 22.1283 11.7134 24.2241 8.27586 24.2241C3.70523 24.2241 0 20.5189 0 15.9483C0 12.5107 2.09584 9.5627 5.0794 8.31229C4.91481 8.99159 4.82759 9.70112 4.82759 10.431C4.82759 10.8215 4.85254 11.206 4.90095 11.5833C3.59766 12.5925 2.75862 14.1724 2.75862 15.9483C2.75862 18.9954 5.22877 21.4655 8.27586 21.4655C10.0517 21.4655 11.6317 20.6265 12.6408 19.3232C13.0181 19.3716 13.4027 19.3965 13.7931 19.3965C14.523 19.3965 15.2325 19.3093 15.9118 19.1447Z" fill="#5941F5"/>
<path fill-rule="evenodd" clip-rule="evenodd" d="M15.1724 17.3276C19.743 17.3276 23.4483 13.6224 23.4483 9.05173C23.4483 4.48109 19.743 0.775864 15.1724 0.775864C10.6018 0.775864 6.89655 4.48109 6.89655 9.05173C6.89655 13.6224 10.6018 17.3276 15.1724 17.3276ZM15.1724 14.569C18.2195 14.569 20.6897 12.0988 20.6897 9.05172C20.6897 6.00463 18.2195 3.53448 15.1724 3.53448C12.1253 3.53448 9.65518 6.00463 9.65518 9.05172C9.65518 12.0988 12.1253 14.569 15.1724 14.569Z" fill="#191726"/>
<path d="M34.5583 4.45928V18.3545H42.4237V20.7758H31.7241V4.45928H34.5583Z" fill="#191726"/>
<path d="M43.4378 8.69378H46.25V20.7758H43.4378V8.69378ZM43.3279 5.72926C43.3279 4.85671 43.9651 4.22412 44.8439 4.22412C45.7227 4.22412 46.3598 4.85671 46.3598 5.72926C46.3598 6.62362 45.7227 7.25621 44.8439 7.25621C43.9651 7.25621 43.3279 6.62362 43.3279 5.72926Z" fill="#191726"/>
<path d="M55.5617 14.6026C55.5617 12.6176 54.6389 11.4396 52.8813 11.4396C51.3873 11.4614 50.135 12.683 50.1789 14.6026V20.7758H47.3447V9.10558H50.1789V11.047C50.8161 9.95631 52.0244 9.17102 53.2987 9.17102C55.4957 9.17102 58.3958 10.3053 58.3958 14.559V20.7758H55.5617V14.6026Z" fill="#191726"/>
<path d="M62.1785 4.45928V13.7082L66.1771 9.10558H70L65.3862 14.3408L69.7583 20.7758H66.3749L63.343 16.3695L62.1785 17.7656V20.7758H59.3443V4.45928H62.1785Z" fill="#191726"/>
</svg>
