<svg width="222" height="97" viewBox="0 0 222 97" fill="none" xmlns="http://www.w3.org/2000/svg">
<g id="Link">
<path d="M16.4383 1.37814V82.8101H62.0576V97H0V1.37814H16.4383Z" fill="#F9F8FE"/>
<path d="M67.9392 26.1941H84.25V97H67.9392V26.1941ZM67.3021 8.82073C67.3021 3.70726 70.9975 0 76.0946 0C81.1917 0 84.8872 3.70726 84.8872 8.82073C84.8872 14.062 81.1917 17.7693 76.0946 17.7693C70.9975 17.7693 67.3021 14.062 67.3021 8.82073Z" fill="#F9F8FE"/>
<path d="M138.258 60.8222C138.258 49.1891 132.906 42.2859 122.711 42.2859C114.046 42.4137 106.783 49.5726 107.038 60.8222V97H90.5995V62.8037V28.6074H107.038V39.9848C110.733 33.593 117.742 28.9909 125.133 28.9909C137.875 28.9909 154.696 35.6384 154.696 60.5665V97H138.258V60.8222Z" fill="#F9F8FE"/>
<path d="M176.636 1.37814V55.5809L199.827 28.6074H222L195.24 59.2882L220.598 97H200.974L183.389 71.177L176.636 79.3585V97H160.197V1.37814H176.636Z" fill="#F9F8FE"/>
</g>
</svg>
