<svg width="118" height="41" viewBox="0 0 118 41" fill="none" xmlns="http://www.w3.org/2000/svg">
<path d="M26.8228 31.7013C24.715 36.7308 19.7454 40.2637 13.9507 40.2637C6.24596 40.2637 0 34.0178 0 26.313C0 20.5183 3.53298 15.5488 8.56242 13.4409C8.28496 14.586 8.13793 15.7821 8.13793 17.0125C8.13793 17.6707 8.18 18.319 8.2616 18.9549C6.06463 20.6561 4.65025 23.3194 4.65025 26.313C4.65025 31.4495 8.81422 35.6135 13.9507 35.6135C16.9444 35.6135 19.6077 34.1991 21.3088 32.0021C21.9448 32.0837 22.5931 32.1258 23.2512 32.1258C24.4816 32.1258 25.6777 31.9788 26.8228 31.7013Z" fill="#5941F5"/>
<path fill-rule="evenodd" clip-rule="evenodd" d="M25.5763 28.6378C33.2811 28.6378 39.5271 22.3918 39.5271 14.6871C39.5271 6.98229 33.2811 0.736328 25.5763 0.736328C17.8716 0.736328 11.6256 6.98229 11.6256 14.6871C11.6256 22.3918 17.8716 28.6378 25.5763 28.6378ZM25.5764 23.9876C30.7129 23.9876 34.8769 19.8237 34.8769 14.6872C34.8769 9.55063 30.7129 5.38666 25.5764 5.38666C20.4398 5.38666 16.2759 9.55063 16.2759 14.6872C16.2759 19.8237 20.4398 23.9876 25.5764 23.9876Z" fill="#F9F8FE"/>
<path d="M58.2554 6.94573V30.3692H71.5142V34.4508H53.4778V6.94573H58.2554Z" fill="#F9F8FE"/>
<path d="M73.2237 14.0839H77.9642V34.4508H73.2237V14.0839ZM73.0385 9.08655C73.0385 7.61569 74.1125 6.54932 75.594 6.54932C77.0754 6.54932 78.1494 7.61569 78.1494 9.08655C78.1494 10.5942 77.0754 11.6606 75.594 11.6606C74.1125 11.6606 73.0385 10.5942 73.0385 9.08655Z" fill="#F9F8FE"/>
<path d="M93.6611 24.0445C93.6611 20.6983 92.1056 18.7126 89.1427 18.7126C86.6243 18.7494 84.5132 20.8086 84.5873 24.0445V34.4508H79.8097V14.7781H84.5873V18.0507C85.6613 16.2121 87.6983 14.8884 89.8464 14.8884C93.55 14.8884 98.4387 16.8005 98.4387 23.9709V34.4508H93.6611V24.0445Z" fill="#F9F8FE"/>
<path d="M104.815 6.94573V22.5368L111.556 14.7781H118L110.222 23.6032L117.593 34.4508H111.889L106.778 27.023L104.815 29.3763V34.4508H100.038V6.94573H104.815Z" fill="#F9F8FE"/>
</svg>
