<svg width="128" height="114" viewBox="0 0 128 114" fill="none" xmlns="http://www.w3.org/2000/svg">
<path fill-rule="evenodd" clip-rule="evenodd" d="M71.2322 16.7746C68.6915 12.4873 63.0659 11.2231 58.9352 14.0113C55.0711 16.6196 53.9648 21.8186 56.4322 25.7742L81.6333 66.1746C83.4639 69.1093 82.5689 72.9724 79.6341 74.803C76.6994 76.6337 72.8364 75.7386 71.0057 72.8039L45.8047 32.4034C39.7689 22.7274 42.4751 10.0097 51.9275 3.62938L51.9275 3.62937C62.0317 -3.19099 75.7931 -0.0985668 82.0079 10.389L124.834 82.6574C130.772 92.6776 127.304 105.621 117.153 111.331C107.447 116.791 95.1623 113.619 89.313 104.143L82.7058 93.4393C80.889 90.496 81.8021 86.6372 84.7454 84.8203C87.6887 83.0035 91.5475 83.9167 93.3643 86.8599L99.9715 97.5635C102.291 101.321 107.163 102.579 111.012 100.414C115.038 98.1497 116.413 93.0168 114.058 89.0431L71.2322 16.7746L76.62 13.5818L71.2322 16.7746Z" fill="url(#paint0_linear_6_77670)"/>
<path fill-rule="evenodd" clip-rule="evenodd" d="M34.796 39.0265C37.7987 40.7436 38.841 44.5701 37.1241 47.5732L13.5662 88.7788C11.4003 92.5671 12.7336 97.3947 16.5364 99.5341C20.3944 101.705 25.2827 100.263 27.3457 96.3457L42.7158 67.1623C42.7158 67.1623 42.7158 67.1623 42.7158 67.1623C43.8799 64.952 46.1722 63.5685 48.6699 63.5685H75.8957C79.3546 63.5685 82.1586 66.3728 82.1586 69.8322C82.1586 73.2916 79.3546 76.0959 75.8957 76.0959H52.1678L38.4279 102.184C33.0779 112.342 20.4008 116.081 10.3956 110.453C0.533369 104.904 -2.9242 92.3848 2.69256 82.5604L26.2505 41.3548C27.9674 38.3517 31.7934 37.3093 34.796 39.0265Z" fill="url(#paint1_linear_6_77670)"/>
<defs>
<linearGradient id="paint0_linear_6_77670" x1="62.628" y1="-21.9199" x2="140.913" y2="106.468" gradientUnits="userSpaceOnUse">
<stop stop-color="#4DC4F7"/>
<stop offset="1" stop-color="#1BB6F7"/>
</linearGradient>
<linearGradient id="paint1_linear_6_77670" x1="31.3142" y1="97.0809" x2="78.2966" y2="-3.13381" gradientUnits="userSpaceOnUse">
<stop stop-color="#4DC4F7"/>
<stop offset="1" stop-color="#1BB6F7"/>
</linearGradient>
</defs>
</svg>
