<svg width="61" height="61" viewBox="0 0 61 61" fill="none" xmlns="http://www.w3.org/2000/svg">
<g id="&#225;&#132;&#139;&#225;&#133;&#162;&#225;&#132;&#145;&#225;&#133;&#179;&#225;&#134;&#175;&#225;&#132;&#145;&#225;&#133;&#161;&#225;&#132;&#139;&#225;&#133;&#181; 1" clip-path="url(#clip0_1754_492)">
<g id="Group 24">
<path id="Vector" d="M40.5088 23.5235C40.4363 23.5975 40.3639 23.6696 40.2878 23.7473C36.0564 27.9584 30.7346 29.3935 28.3997 26.9505C27.3365 25.8372 27.0756 24.1098 27.5085 22.1624C13.2367 23.8472 2.00981 35.7406 1.00269 50.5007H61.0027C60.1459 37.8859 51.8208 27.3684 40.5088 23.5235ZM17.9626 39.3766C16.403 39.3766 15.1405 38.0838 15.1405 36.4952C15.1405 34.9066 16.403 33.6138 17.9626 33.6138C19.5222 33.6138 20.7847 34.9029 20.7847 36.4952C20.7847 38.0875 19.5204 39.3766 17.9626 39.3766ZM41.9868 39.3766C40.4273 39.3766 39.1648 38.0838 39.1648 36.4952C39.1648 34.9066 40.4273 33.6138 41.9868 33.6138C43.5465 33.6138 44.809 34.9029 44.809 36.4952C44.809 38.0875 43.5465 39.3766 41.9868 39.3766Z" fill="#B52426"/>
<path id="Vector_2" d="M40.5089 23.523C37.522 22.5077 34.3267 21.9566 31.0028 21.9566C29.82 21.9566 28.6535 22.0269 27.5087 22.1619C28.0231 19.8353 29.5265 17.1889 31.8288 14.8956C36.0584 10.6827 41.382 9.24753 43.7169 11.6925C46.0119 14.0929 44.5682 19.3434 40.5089 23.523Z" fill="#B52426"/>
</g>
</g>
<defs>
<clipPath id="clip0_1754_492">
<rect width="60" height="60" fill="white" transform="translate(0.973633 0.5)"/>
</clipPath>
</defs>
</svg>
