<?xml version="1.0" encoding="UTF-8"?>
<svg id="b" data-name="레이어 2" xmlns="http://www.w3.org/2000/svg" viewBox="0 0 926.68 192.52">
  <defs>
    <style>
      .d {
        fill: #f3a89f;
      }

      .d, .e, .f, .g {
        stroke-width: 0px;
      }

      .e {
        fill: #231815;
      }

      .f {
        fill: #f49e15;
      }

      .g {
        fill: #fff;
      }
    </style>
  </defs>
  <g id="c" data-name="레이어 1">
    <g>
      <g>
        <g>
          <path class="g" d="M156.01,94.92c-1.71,100.14-150.66,100.12-152.36,0,1.71-100.13,150.66-100.12,152.36,0Z"/>
          <path class="e" d="M79.83,172.75h0c-20.36,0-39.43-6.91-53.7-19.46C10.05,139.14,1.33,118.97.93,94.97c.41-24.1,9.13-44.27,25.22-58.42,14.26-12.54,33.33-19.45,53.69-19.45h0c20.36,0,39.43,6.91,53.7,19.46,16.08,14.15,24.8,34.32,25.21,58.32v.09c-.41,24.01-9.13,44.18-25.22,58.33-14.26,12.54-33.33,19.45-53.69,19.45ZM79.84,22.56c-34.78,0-72.61,22.66-73.46,72.41.84,49.66,38.66,72.32,73.44,72.32,34.77,0,72.58-22.64,73.46-72.37-.86-49.72-38.67-72.37-73.44-72.37Z"/>
        </g>
        <g>
          <path class="f" d="M55.17,167.2c-.05,24.16,28.69,30.73,36.38,3.7-9.34,1.67-24.05,1.1-36.38-3.7"/>
          <path class="e" d="M72.83,192.52c-.91,0-1.81-.06-2.67-.18-9.21-1.29-19.1-9.71-19.08-25.15,0-1.35.67-2.61,1.79-3.37,1.12-.76,2.53-.93,3.79-.43,11.68,4.54,25.58,5.02,34.18,3.48,1.39-.25,2.81.24,3.76,1.28s1.29,2.51.9,3.87c-4.35,15.26-14.38,20.5-22.67,20.5ZM60,173.1c1.81,6.77,6.69,10.48,11.3,11.13,4.59.65,10.2-1.43,13.98-8.51-7.23.42-16.31-.15-25.28-2.62Z"/>
        </g>
        <path class="d" d="M57.31,134.72c-.41,24.08-36.23,24.08-36.64,0,.41-24.08,36.23-24.08,36.64,0Z"/>
        <path class="e" d="M47.13,29.07c-.97,0-1.91-.52-2.41-1.44-4.6-8.54-18.08-9.79-18.22-9.81-1.5-.13-2.62-1.45-2.49-2.95.13-1.5,1.44-2.61,2.94-2.49.67.06,16.56,1.49,22.57,12.66.71,1.33.22,2.98-1.11,3.7-.41.22-.85.33-1.29.33Z"/>
        <path class="e" d="M49.29,28.06c-1.39,0-2.58-1.06-2.71-2.47l-2.17-22.6c-.14-1.5.96-2.83,2.46-2.98,1.5-.15,2.83.96,2.98,2.46l2.17,22.6c.14,1.5-.96,2.83-2.46,2.98-.09,0-.18.01-.26.01Z"/>
        <path class="d" d="M142.52,134.72c-.41,24.08-36.23,24.08-36.64,0,.41-24.08,36.23-24.08,36.64,0Z"/>
        <g>
          <path class="e" d="M59.19,120.05c.11,7.24-11.26,7.24-11.15,0-.11-7.24,11.26-7.24,11.15,0Z"/>
          <path class="e" d="M112.54,120.62c.09,6.47-10.08,6.47-9.98,0-.09-6.47,10.08-6.47,9.98,0Z"/>
        </g>
        <path class="e" d="M82.01,174.28c-5.12,0-10.29-.45-15.48-1.37-20.38-3.59-38.25-13.89-50.33-28.98C2.58,126.9-2.6,105.15,1.23,81.05c0-.05.02-.09.02-.14,4.65-23.96,16.96-42.62,35.59-53.97,16.51-10.05,36.82-13.6,57.21-10.01,20.38,3.6,38.25,13.89,50.33,28.98,13.63,17.03,18.81,38.78,14.98,62.88,0,.05-.02.09-.02.14-4.65,23.96-16.96,42.63-35.59,53.97-12.31,7.49-26.74,11.38-41.73,11.38ZM9.3,82.4c-7.62,48.19,25.05,76.52,58.65,82.44,33.61,5.93,74-9.51,83.32-57.41,7.62-48.19-25.05-76.51-58.65-82.44-33.6-5.92-74,9.51-83.32,57.4ZM155.31,108.15h0,0Z"/>
      </g>
      <g>
        <g>
          <path class="g" d="M198.54,129.69c-1.35-23.45-.94-44.48.13-68.2.81-14.29,11.19-22.38,21.3-23.45,6.88-.67,14.96-1.21,22.91-1.21,30.46-.27,52.57,15.91,52.57,56.47.14,40.44-22.11,60.92-52.3,61.06-8.09,0-16.17-.54-23.18-1.21-10.11-1.08-20.49-9.3-21.43-23.45ZM246.93,102.87c3.64-5.12,4.72-12.53,4.85-19.14,0-3.23-4.72-3.1-4.72-.94-.4,6.61-1.62,12.13-4.85,18.6-1.08,2.02,2.97,4.04,4.72,1.48Z"/>
          <path class="e" d="M243.17,157.72c-7.15,0-15.06-.41-23.52-1.23-11.03-1.18-23.37-10-24.47-26.58v-.03c-1.47-25.46-.8-47.99.13-68.55.94-16.64,13.26-25.47,24.3-26.65,8.35-.82,16.17-1.23,23.27-1.23,17.14-.14,30.71,4.61,40.34,14.16,10.35,10.25,15.59,25.62,15.59,45.68.13,39.58-21.19,64.27-55.65,64.43ZM201.9,129.48c.85,12.7,10.15,19.43,18.42,20.31,8.22.79,15.91,1.19,22.83,1.19,30.75-.14,49.05-21.7,48.93-57.67,0-18.21-4.57-31.97-13.6-40.91-8.18-8.1-19.9-12.21-34.84-12.21-.24,0-.49,0-.73,0-6.82,0-14.63.41-22.62,1.2-8.28.88-17.54,7.61-18.26,20.29-.92,20.33-1.58,42.65-.14,67.8ZM244.7,107.44c-1.21,0-2.4-.34-3.38-.94-2.48-1.5-3.35-4.32-2.08-6.71,2.74-5.48,4.04-10.47,4.46-17.15.07-2.75,2.39-4.8,5.46-4.8,3.42,0,6,2.53,6,5.87-.19,9.15-2.02,16.22-5.46,21.07-1.29,1.87-3.17,2.65-4.99,2.65ZM245.26,102.81l-.04.08s.03-.05.04-.08Z"/>
        </g>
        <g>
          <path class="g" d="M306.1,132.65c-1.35-11.46-1.62-23.59-1.62-37.07s.27-25.61,1.62-36.93c1.89-17.25,22.91-21.7,42.32-21.84,20.49-.13,41.92,3.64,41.92,25.21,0,8.76-3.23,10.78-13.88,7.95-3.5-.95-7.68-1.62-11.05-1.62-9.7,0-16.31,1.48-22.1,3.78-2.83,1.08-1.89,4.99,1.21,3.77,11.86-4.18,29.38-4.58,36.66-.14,6.2,3.91,9.16,9.71,9.16,19.82s-2.96,16.04-9.16,19.81c-7.28,4.58-24.8,4.18-36.66-.13-3.1-1.08-4.05,2.69-1.21,3.77,5.79,2.29,12.4,3.64,22.1,3.64,3.37,0,7.55-.54,11.05-1.48,10.65-2.7,13.88-.81,13.88,7.82,0,21.57-21.43,25.48-41.92,25.34-19.41-.13-40.44-4.72-42.32-21.7Z"/>
          <path class="e" d="M349.43,157.73c-.34,0-.68,0-1.03,0-27.68-.19-43.89-8.96-45.65-24.68-1.44-12.25-1.64-25.24-1.64-37.45s.2-25.21,1.64-37.33c1.75-16.02,17.54-24.61,45.65-24.81,18.94-.1,31.09,3.16,38.31,10.33,4.65,4.62,7,10.75,7,18.24,0,3.61-.43,8.09-3.77,10.66-1.38,1.06-3.01,1.59-4.79,1.77,5.91,4.66,8.56,11.29,8.56,21.13s-2.74,16.64-8.57,21.17c1.82.18,3.48.73,4.88,1.82,3.27,2.54,3.69,6.92,3.69,10.44,0,7.51-2.37,13.67-7.04,18.31-7.13,7.09-18.98,10.4-37.24,10.4ZM349.41,40.19c-.32,0-.64,0-.96,0-16.86.12-37.32,3.48-39,18.83-1.4,11.8-1.6,24.55-1.6,36.57s.19,24.76,1.59,36.67v.02c1.79,16.05,25.2,18.61,39,18.7.32,0,.65,0,.96,0,16.16,0,26.79-2.76,32.51-8.44,3.4-3.38,5.05-7.8,5.05-13.53,0-3.72-.68-4.81-1.09-5.12-.58-.45-2.47-.98-8.6.57-3.67.99-8.13,1.59-11.88,1.59-9.36,0-16.56-1.2-23.34-3.88-2.98-1.14-4.54-4.26-3.51-7.11.87-2.4,3.58-4.19,7.07-2.98,11.26,4.1,27.64,4.31,33.76.46,5.33-3.25,7.59-8.31,7.59-16.96s-2.2-13.56-7.59-16.96c-6.07-3.71-22.45-3.5-33.7.45-2.02.77-4.04.52-5.54-.69-1.43-1.15-2.13-3.02-1.83-4.89.32-2.04,1.74-3.73,3.79-4.51,6.97-2.76,14.17-4,23.3-4,3.45,0,7.91.65,11.93,1.74,6.01,1.6,7.9,1.08,8.49.62.43-.33,1.14-1.45,1.14-5.32,0-5.71-1.64-10.11-5.01-13.46-5.67-5.63-16.33-8.38-32.55-8.38Z"/>
        </g>
        <g>
          <path class="g" d="M445.2,153.41c-33.16,0-45.42-35.58-45.69-74-.27-21.97,9.57-41.24,27.09-41.24s25.21,15.1,25.21,34.51c0,15.77-3.1,33.83-15.23,45.56-1.21,1.08-1.62,1.75-.81,2.56.81.95,1.62,1.62,3.1.41,13.21-12.67,16.31-29.38,16.04-53.78-.14-16.44,3.64-29.25,18.2-29.25,13.07,0,18.33,12.67,17.12,43.94-1.35,36.93-17.79,71.3-45.02,71.3Z"/>
          <path class="e" d="M445.21,156.78c-16.52,0-29.72-8.43-38.16-24.39-6.98-13.2-10.75-31.51-10.91-52.96-.19-15.39,4.25-28.82,12.17-36.84,5.04-5.1,11.36-7.8,18.29-7.8,12.62,0,21.66,7.05,25.88,19.53,1.13-6.26,3.29-10.88,6.56-14.17,3.53-3.56,8.26-5.36,14.06-5.36,5.11,0,9.32,1.69,12.52,5.01,6.39,6.64,8.85,19.73,7.96,42.43-.71,19.45-5.42,37.58-13.26,51.06-8.93,15.36-21.08,23.48-35.13,23.48ZM426.61,41.54c-5.16,0-9.7,1.95-13.5,5.79-6.57,6.65-10.39,18.63-10.22,32.04.15,21.26,4.57,70.67,42.32,70.67,25.71,0,40.42-34.23,41.65-68.05.78-20.17-1.21-32.43-6.09-37.5-1.93-2.01-4.37-2.95-7.66-2.95-3.99,0-7.03,1.1-9.27,3.37-3.83,3.86-5.65,11.22-5.55,22.49.26,23.67-2.54,42.3-17.08,56.24l-.2.18c-.97.8-4.39,3.07-7.72-.74-1.12-1.17-1.33-2.4-1.3-3.23.06-2.03,1.54-3.4,2.3-4.08,9.39-9.11,14.16-23.61,14.16-43.09,0-11.63-2.84-31.13-21.83-31.13Z"/>
        </g>
        <g>
          <path class="g" d="M498.18,95.59c0-32.35,12.8-58.77,55.67-58.77,12.27,0,22.38,1.89,29.92,6.07,10.65,5.39,10.92,17.25,5.93,26.15-5.12,9.3-15.5,15.77-26.15,10.38-2.29-1.21-5.53-2.16-9.71-2.16-12.8,0-17.79,8.63-17.79,18.2s4.99,18.47,17.79,18.47c4.18,0,7.41-.94,9.71-2.16,10.92-5.53,21.57,1.48,26.42,11.05,4.72,9.03,4.04,20.08-6.2,25.61-7.55,4.04-17.66,5.93-29.92,5.93-42.86,0-55.67-26.28-55.67-58.76Z"/>
          <path class="e" d="M553.84,157.72c-21.01,0-36.67-6.21-46.53-18.46-8.3-10.31-12.5-25-12.5-43.68s4.21-33.3,12.5-43.62c9.87-12.28,25.53-18.51,46.53-18.51,13.32,0,23.62,2.11,31.5,6.46,4.99,2.54,8.44,6.55,9.97,11.58,1.81,5.94.83,12.93-2.68,19.19-5.64,10.25-17.64,18.31-30.61,11.74-1.58-.83-4.22-1.79-8.18-1.79-12.55,0-14.42,9.29-14.42,14.83s1.87,15.1,14.42,15.1c3.96,0,6.61-.96,8.13-1.76,12.9-6.53,25.34,1.36,31,12.51,6.23,11.93,3.11,24.32-7.61,30.1-7.85,4.2-18.45,6.33-31.52,6.33ZM553.84,40.19c-35.19,0-52.29,18.12-52.29,55.4s17.11,55.39,52.29,55.39c11.95,0,21.48-1.86,28.33-5.53,9.1-4.91,8.28-14.43,4.8-21.08-4.16-8.2-13.01-14.11-21.91-9.61-3.1,1.64-7,2.52-11.23,2.52-13.05,0-21.16-8.37-21.16-21.84s8.11-21.57,21.16-21.57c4.23,0,8.13.88,11.28,2.55,8.93,4.52,17.48-1.5,21.62-9.03,2.59-4.62,3.38-9.83,2.12-13.95-1-3.3-3.23-5.84-6.62-7.56l-.11-.06c-6.77-3.75-16.28-5.64-28.29-5.64Z"/>
        </g>
        <g>
          <path class="g" d="M599.14,95.59c0-36.26,14.15-58.77,53.64-58.77s53.65,22.51,53.65,58.77-16.45,58.76-53.65,58.76-53.64-22.51-53.64-58.76ZM652.51,105.83c3.78-5.39,4.72-12.67,4.85-19.41.14-3.1-4.58-2.97-4.72-.81-.4,6.61-1.62,12.27-4.72,18.74-1.35,1.89,2.83,3.77,4.58,1.48Z"/>
          <path class="e" d="M652.78,157.72c-19.04,0-33.62-5.71-43.32-16.96-9.08-10.53-13.69-25.73-13.69-45.18,0-41.81,18.65-62.14,57.01-62.14s57.02,20.33,57.02,62.14c0,19.45-4.61,34.65-13.69,45.18-9.7,11.25-24.28,16.96-43.33,16.96ZM652.78,40.19c-34.3,0-50.27,17.6-50.27,55.4s16.91,55.39,50.27,55.39,50.28-18.64,50.28-55.39c0-18.43-3.66-31.79-11.18-40.82-8.16-9.81-20.95-14.57-39.09-14.57ZM650.31,110.27c-1.44,0-2.85-.46-3.94-1.27-2.13-1.58-2.68-4.17-1.38-6.29,2.64-5.57,3.89-10.6,4.3-17.29.17-2.82,2.79-4.91,5.94-4.73,3.28.17,5.64,2.71,5.5,5.89-.12,5.87-.81,14.55-5.46,21.19l-.08.11c-1.28,1.67-3.1,2.39-4.88,2.39ZM654,86.36s0,.02,0,.03c0,0,0-.02,0-.03Z"/>
        </g>
        <g>
          <path class="g" d="M713.98,95.59c0-36.26,14.15-58.77,53.64-58.77s53.65,22.51,53.65,58.77-16.45,58.76-53.65,58.76-53.64-22.51-53.64-58.76ZM767.35,105.83c3.78-5.39,4.72-12.67,4.85-19.41.14-3.1-4.58-2.97-4.72-.81-.4,6.61-1.62,12.27-4.72,18.74-1.35,1.89,2.83,3.77,4.58,1.48Z"/>
          <path class="e" d="M767.62,157.72c-19.04,0-33.62-5.71-43.32-16.96-9.08-10.53-13.69-25.73-13.69-45.18,0-41.81,18.65-62.14,57.01-62.14s57.02,20.33,57.02,62.14c0,19.45-4.61,34.65-13.69,45.18-9.7,11.25-24.28,16.96-43.33,16.96ZM767.62,40.19c-34.3,0-50.27,17.6-50.27,55.4s16.91,55.39,50.27,55.39,50.28-18.64,50.28-55.39c0-18.43-3.66-31.79-11.18-40.82-8.16-9.81-20.95-14.57-39.09-14.57ZM765.15,110.27c-1.44,0-2.85-.46-3.94-1.27-2.13-1.58-2.68-4.17-1.38-6.29,2.64-5.57,3.89-10.6,4.3-17.29.17-2.82,2.8-4.91,5.94-4.73,3.28.17,5.64,2.71,5.5,5.89-.12,5.87-.81,14.55-5.46,21.19l-.08.11c-1.28,1.67-3.1,2.39-4.88,2.39ZM768.84,86.36s0,.02,0,.03c0,0,0-.02,0-.03Z"/>
        </g>
        <g>
          <path class="g" d="M869.39,115.27c-.4,6.6-.94,13.34-1.48,19.95-.94,10.11-6.6,18.06-17.79,18.06s-16.98-7.95-17.93-18.06c-2.7-25.61-2.56-52.97,0-78.44,1.48-13.08,9.84-17.25,20.22-18.74,6.33-.67,12.94-1.21,19.27-1.21,25.21-.27,51.62,4.18,51.62,39.09s-26.42,39.9-53.91,39.36ZM869.39,78.74c5.66,2.97,11.46,4.04,17.93,3.37,3.1-.4,2.56-4.99.4-4.85-6.6.4-11.32-.67-17.12-3.23-2.16-.94-4.04,3.1-1.21,4.72Z"/>
          <path class="e" d="M850.12,156.65c-12.09,0-20.05-7.89-21.28-21.12-2.66-25.25-2.66-52.62,0-79.09,1.9-16.8,14.09-20.45,23.09-21.73h.12c4.97-.54,12.41-1.25,19.63-1.25,14.68-.16,33,1.1,44.35,12.33,7.06,6.98,10.64,17.12,10.64,30.13,0,13.72-3.51,23.82-10.72,30.9-10.51,10.31-26.88,12-43.4,11.87-.37,5.56-.82,11.13-1.28,16.81-1.22,13.06-9.32,21.16-21.15,21.16ZM852.83,41.38c-11.19,1.61-16.2,6.18-17.29,15.77-2.61,25.99-2.61,52.87,0,77.71.53,5.64,3.12,15.04,14.57,15.04s13.91-9.4,14.44-15c.55-6.69,1.07-13.27,1.48-19.84l.2-3.23,3.23.06c16.14.32,32.36-.67,41.78-9.9,5.86-5.74,8.7-14.28,8.7-26.09s-2.83-19.58-8.64-25.34c-9.58-9.48-26.19-10.52-39.58-10.38-6.9,0-14.07.68-18.89,1.19ZM883.71,85.67c-5.64,0-10.85-1.3-15.89-3.94l-.11-.06c-2.89-1.65-3.95-5.13-2.46-8.09,1.31-2.6,4.19-3.74,6.7-2.64,5.67,2.5,9.89,3.3,15.56,2.96,2.76-.19,5.02,1.98,5.32,5.01.32,3.32-1.86,6.13-5.08,6.55-1.37.14-2.72.21-4.04.21ZM887.93,80.62h0,0Z"/>
        </g>
      </g>
    </g>
  </g>
</svg>