<svg width="79" height="61" viewBox="0 0 79 61" fill="none" xmlns="http://www.w3.org/2000/svg">
<g id="Group">
<path id="Vector" d="M48.9783 44.5316L53.6545 39.8553L58.3308 35.1791L63.007 30.5028L58.3308 25.8266L53.6545 30.5028L48.9783 35.1791L44.302 39.8553L39.6258 44.5316L34.9496 49.2078L31.4424 52.715C30.7964 53.3609 29.7502 53.3609 29.1042 52.715L25.5971 49.2078L30.2733 44.5316L34.9496 39.8553L39.6258 35.1791L44.302 30.5028L48.9783 25.8266L53.6545 21.1503L48.9783 16.4741L44.302 21.1503L39.6258 25.8266L34.9496 30.5028L30.2733 35.1791L25.5971 39.8553L20.9208 44.5316L16.2446 39.8553L11.5683 35.1791L8.06114 31.6719C7.41521 31.026 7.41521 29.9797 8.06114 29.3338L11.5683 25.8266L16.2446 21.1503L20.9208 16.4741L25.5971 11.7978L30.2733 7.12159L34.9496 2.44535C32.3658 -0.138359 28.1791 -0.138359 25.5954 2.44535L20.9191 7.12159L16.2429 11.7978L11.5666 16.4741L6.89039 21.1503L2.21415 25.8266C-0.36956 28.4103 -0.36956 32.597 2.21415 35.1807L6.89039 39.857L11.5666 44.5332L16.2429 49.2095L20.9191 53.8857L25.5954 58.562C28.1791 61.1457 32.3658 61.1457 34.9496 58.562L39.6258 53.8857L44.302 49.2095L48.9783 44.5332V44.5316Z" fill="#425563"/>
<path id="Vector_2" d="M44.3004 2.43971L39.6241 7.11595L34.9479 11.7922L30.2717 16.4684L25.5954 21.1447L20.9192 25.8209L16.2429 30.4972L20.9192 35.1734L25.5954 30.4972L30.2717 25.8209L34.9479 21.1447L39.6241 16.4684L44.3004 11.7922L47.8076 8.28502C48.4535 7.63909 49.4998 7.63909 50.1457 8.28502L53.6529 11.7922L58.3291 16.4684L63.0054 21.1447L67.6816 25.8209L71.1888 29.3281C71.8347 29.9741 71.8347 31.0203 71.1888 31.6662L67.6816 35.1734L63.0054 39.8497L58.3291 44.5259L53.6529 49.2022L48.9766 53.8784L44.3004 58.5547C46.8841 61.1384 51.0709 61.1384 53.6546 58.5547L58.3308 53.8784L63.0071 49.2022L67.6833 44.5259L72.3596 39.8497L77.0358 35.1734C79.6195 32.5897 79.6195 28.403 77.0358 25.8193L72.3596 21.143L67.6833 16.4668L63.0071 11.7905L58.3308 7.11427L53.6546 2.43803C51.0709 -0.145683 46.8841 -0.145683 44.3004 2.43803V2.43971Z" fill="#00A9CE"/>
</g>
</svg>
