<svg width="61" height="61" viewBox="0 0 61 61" fill="none" xmlns="http://www.w3.org/2000/svg">
<g id="Group 22 1" clip-path="url(#clip0_1754_483)">
<path id="Vector" d="M44.3822 46.1485V46.3921C44.3822 54.1711 38.0646 60.5 30.2832 60.5C22.5017 60.5 16.1752 54.1711 16.1752 46.3921V27.595H25.8377V46.3921C25.8377 48.8438 27.8269 50.8332 30.2832 50.8332C32.7394 50.8332 34.7241 48.8438 34.7241 46.3921V46.1485H44.3822Z" fill="#251714"/>
<path id="Vector_2" d="M44.3822 14.608V33.4051H34.7241V14.608C34.7241 12.1563 32.7304 10.1669 30.2832 10.1669C27.8359 10.1669 25.8377 12.1563 25.8377 14.608V14.8561H16.1752V14.608C16.1752 6.82884 22.504 0.5 30.2832 0.5C38.0622 0.5 44.3822 6.82884 44.3822 14.608Z" fill="#251714"/>
<path id="Vector_3" d="M33.1814 16.3943V26.0568H14.3843C11.9394 26.0568 9.94331 28.046 9.94331 30.5021C9.94331 32.9585 11.9372 34.9432 14.3843 34.9432H14.6324V44.6058H14.3843C6.60973 44.6058 0.276367 38.2814 0.276367 30.5021C0.276367 22.7231 6.60973 16.3943 14.3843 16.3943H33.1814Z" fill="#0076FF"/>
<path id="Vector_4" d="M60.2764 30.5021C60.2764 38.2814 53.9475 44.6058 46.1685 44.6058H27.3759V34.9432H46.1685C48.6201 34.9432 50.6141 32.954 50.6141 30.5021C50.6141 28.0505 48.6201 26.0568 46.1685 26.0568H45.9249V16.3943H46.1685C53.9475 16.3943 60.2764 22.7186 60.2764 30.5021Z" fill="#0076FF"/>
</g>
<defs>
<clipPath id="clip0_1754_483">
<rect width="60" height="60" fill="white" transform="translate(0.276367 0.5)"/>
</clipPath>
</defs>
</svg>
