<svg width="60" height="61" viewBox="0 0 60 61" fill="none" xmlns="http://www.w3.org/2000/svg">
<g clip-path="url(#clip0_2292_2345)">
<path d="M44.1058 46.5026V46.7462C44.1058 54.5252 37.7882 60.8542 30.0069 60.8542C22.2253 60.8542 15.8988 54.5252 15.8988 46.7462V27.9491H25.5613V46.7462C25.5613 49.1979 27.5505 51.1873 30.0069 51.1873C32.463 51.1873 34.4477 49.1979 34.4477 46.7462V46.5026H44.1058Z" fill="#251714"/>
<path d="M44.1058 14.9621V33.7592H34.4477V14.9621C34.4477 12.5104 32.454 10.5211 30.0069 10.5211C27.5595 10.5211 25.5613 12.5104 25.5613 14.9621V15.2102H15.8988V14.9621C15.8988 7.18297 22.2276 0.854126 30.0069 0.854126C37.7859 0.854126 44.1058 7.18297 44.1058 14.9621Z" fill="#251714"/>
<path d="M32.9051 16.7484V26.4109H14.108C11.663 26.4109 9.66694 28.4001 9.66694 30.8563C9.66694 33.3126 11.6608 35.2973 14.108 35.2973H14.3561V44.9599H14.108C6.33336 44.9599 0 38.6355 0 30.8563C0 23.0773 6.33336 16.7484 14.108 16.7484H32.9051Z" fill="#0076FF"/>
<path d="M60 30.8563C60 38.6355 53.6711 44.9599 45.8921 44.9599H27.0994V35.2973H45.8921C48.3437 35.2973 50.3376 33.3081 50.3376 30.8563C50.3376 28.4046 48.3437 26.4109 45.8921 26.4109H45.6484V16.7484H45.8921C53.6711 16.7484 60 23.0728 60 30.8563Z" fill="#0076FF"/>
</g>
<defs>
<clipPath id="clip0_2292_2345">
<rect width="60" height="60" fill="white" transform="translate(0 0.854126)"/>
</clipPath>
</defs>
</svg>
