<svg width="72" height="75" viewBox="0 0 72 75" fill="none" xmlns="http://www.w3.org/2000/svg">
<g clip-path="url(#clip0_1754_475)">
<mask id="mask0_1754_475" style="mask-type:luminance" maskUnits="userSpaceOnUse" x="0" y="0" width="72" height="75">
<path d="M71.1496 0H0.0263672V75H71.1496V0Z" fill="white"/>
</mask>
<g mask="url(#mask0_1754_475)">
<path d="M71.1496 20.8759C67.9691 18.7437 64.1431 17.5 60.0264 17.5C48.9806 17.5 40.0264 26.4543 40.0264 37.5C40.0264 48.5457 48.9806 57.5 60.0264 57.5C64.1431 57.5 67.9691 56.2563 71.1496 54.124C65.0214 66.4948 52.2671 75 37.5264 75C16.8157 75 0.0263672 58.2108 0.0263672 37.5C0.0263672 16.7893 16.8157 0 37.5264 0C52.2671 0 65.0214 8.5052 71.1496 20.8759Z" fill="#907FDF"/>
<path d="M60.0264 17.5C64.1429 17.5 67.9691 18.7437 71.1496 20.8759C71.1446 20.8661 71.1399 20.8562 71.1349 20.8464C64.6089 16.2195 56.6351 13.5 48.0264 13.5C25.9349 13.5 8.02637 31.4085 8.02637 53.5C8.02637 56.3042 8.31482 59.0407 8.86389 61.6822C15.7428 69.8272 26.0306 75 37.5264 75C52.2671 75 65.0214 66.4947 71.1496 54.124C67.9691 56.2562 64.1429 57.5 60.0264 57.5C48.9806 57.5 40.0264 48.5457 40.0264 37.5C40.0264 26.4542 48.9806 17.5 60.0264 17.5Z" fill="#524B9B"/>
<path d="M68.1616 19.2238C65.6761 18.1159 62.9231 17.5 60.0264 17.5C48.9806 17.5 40.0264 26.4543 40.0264 37.5C40.0264 48.5458 48.9806 57.5 60.0264 57.5C64.1429 57.5 67.9691 56.2563 71.1496 54.124C65.0214 66.4948 52.2671 75 37.5264 75C36.6559 75 35.7924 74.9703 34.9369 74.912C26.5271 69.0378 21.0264 59.2863 21.0264 48.25C21.0264 30.3008 35.5771 15.75 53.5264 15.75C58.7909 15.75 63.7631 17.0017 68.1616 19.2238Z" fill="#3A3A60"/>
</g>
</g>
<defs>
<clipPath id="clip0_1754_475">
<rect width="71.25" height="75" fill="white" transform="translate(0.0263672)"/>
</clipPath>
</defs>
</svg>
