<?xml version="1.0" encoding="UTF-8"?>
<svg id="_레이어_1" data-name="레이어 1" xmlns="http://www.w3.org/2000/svg" viewBox="0 0 210.09 66.35">
  <defs>
    <style>
      .cls-1 {
        fill: #18040f;
      }

      .cls-1, .cls-2 {
        stroke-width: 0px;
      }

      .cls-2, .cls-3 {
        fill: none;
      }

      .cls-3 {
        stroke: #18040f;
        stroke-linecap: round;
        stroke-linejoin: round;
        stroke-width: .5px;
      }
    </style>
  </defs>
  <g>
    <path class="cls-1" d="m27.47,16.15v26.28c0,4.54-4.04,8.22-9.02,8.22h0c-1.66,0-3.01,1.23-3.01,2.74h0s0-25.96,0-25.96c0-4.38,2.42-7.63,8.7-7.93h0c1.61-.02,2.65-.52,2.93-1.81l.39-1.53Z"/>
    <path class="cls-1" d="m50.37,16.15v26.28c0,4.54-4.04,8.22-9.02,8.22h0c-1.66,0-3.01,1.23-3.01,2.74h0s0-25.96,0-25.96c0-4.38,2.42-7.63,8.7-7.93h0c1.61-.02,2.65-.52,2.93-1.81l.39-1.53Z"/>
    <circle class="cls-1" cx="5.49" cy="29.06" r="5.49"/>
    <circle class="cls-1" cx="45.71" cy="57.16" r="5.49"/>
    <path class="cls-3" d="m.25,28.93v-.26c0-6.89,5.57-12.47,12.44-12.47h17.07c4.84,0,8.85,3.93,8.85,8.78v8.65"/>
    <path class="cls-3" d="m45.97,16.2h7.04c4.6,0,8.34,3.93,8.34,8.77v29.73c0,6.26-4.87,11.38-10.81,11.38h-1.47c-4.73,0-8.59-4.07-8.59-9.05h0"/>
  </g>
  <g>
    <path class="cls-1" d="m79.79,16.15v26.28c0,4.54-4.04,8.22-9.02,8.22h0c-1.66,0-3.01,1.23-3.01,2.74h0s0-25.96,0-25.96c0-4.38,2.42-7.63,8.7-7.93h0c1.61-.02,2.65-.52,2.93-1.81l.39-1.53Z"/>
    <circle class="cls-1" cx="67.06" cy="5.5" r="5.49"/>
    <path class="cls-3" d="m66.83.25h.26c6.89,0,12.47,5.57,12.47,12.44v17.07c0,4.84-3.93,8.85-8.78,8.85"/>
    <line class="cls-3" x1="64.9" y1="53.38" x2="81.49" y2="53.38"/>
  </g>
  <g>
    <line class="cls-3" x1="96.78" y1="53.38" x2="110.19" y2="53.38"/>
    <line class="cls-3" x1="84.43" y1="19.21" x2="101.03" y2="19.21"/>
    <path class="cls-1" d="m92.89,19.21l16.96,34.17h-13.06l-11.27-23.02c-1-2.71.42-5.71,3.15-6.66l1.85-.64c1.61-.56,2.6-2.17,2.37-3.85h0Z"/>
    <line class="cls-3" x1="109.93" y1="53.29" x2="120.98" y2="19.21"/>
    <line class="cls-3" x1="112.9" y1="19.29" x2="124.82" y2="19.29"/>
    <path class="cls-1" d="m120.9,19.21h-4.22,0c1.33.72,2.24,2.02,2.47,3.52l.19,1.29"/>
  </g>
  <g>
    <path class="cls-1" d="m199.09,25.8c0-3.03,2.46-5.49,5.49-5.49s5.49,2.46,5.49,5.49-2.46,5.49-5.49,5.49-5.49-2.46-5.49-5.49Z"/>
    <path class="cls-3" d="m192.65,53.38v-25.79c-.17-6.76,2.94-11.47,8.88-11.47,7.32,0,8.37,4.84,8.3,9.49"/>
    <line class="cls-3" x1="156.85" y1="53.38" x2="170.45" y2="53.38"/>
    <line class="cls-3" x1="156.85" y1="19.52" x2="175.65" y2="19.52"/>
    <path class="cls-1" d="m163.6,19.44h-2.96,0c1.33.72,2.4,2.02,2.62,3.52l.19,1.29"/>
    <polygon class="cls-1" points="192.65 53.38 180.7 53.38 163.7 19.44 175.65 19.44 192.65 53.38"/>
    <line class="cls-3" x1="163.7" y1="19.44" x2="163.7" y2="53.38"/>
  </g>
  <g>
    <path class="cls-2" d="m134.95,35.35c-.03.45-.05,1.12-.05,1.58h0c0,.26,0,.56.02.89,0-.29,0-.59,0-.89h-.01l.04-1.58Z"/>
    <path class="cls-1" d="m144.52,50.76c-9.73,0-10.58-9.83-10.58-12.99h22.22s1.35-17.89-16.76-17.89-19.38,14.77-19.38,17.33,1.85,17.18,18.82,17.18c15.34,0,17.35-12.07,17.35-12.07,0,0-2.44,8.45-11.67,8.45Zm-5.2-30.49c6.27.39,5.27,17.12,5.27,17.12h-10.54s-1-16.73,5.27-17.12Z"/>
  </g>
</svg>