<svg width="51" height="51" viewBox="0 0 51 51" fill="none" xmlns="http://www.w3.org/2000/svg">
<path d="M0 15.799V45.0381L10.6611 50.8541C26.7546 46.0739 40.458 50.8541 40.458 50.8541L50.8809 44.8788V15.799L25.4405 0.854124L0 15.799Z" fill="url(#paint0_linear_2293_2351)"/>
<path d="M24.8959 41.8004C24.8959 41.8004 26.6132 27.7097 10.1436 28.2176C10.1436 28.2176 10.3367 40.2195 24.8959 41.8004Z" fill="white"/>
<path d="M26.1997 41.8004C26.1997 41.8004 24.4824 27.7097 40.952 28.2176C40.952 28.2176 40.7589 40.2195 26.1997 41.8004Z" fill="white"/>
<path d="M26.1486 14.1754C26.1486 14.1754 34.9978 24.1877 25.6091 34.2604C25.6091 34.2604 14.7855 25.8766 26.1486 14.1754Z" fill="white"/>
<path d="M26.4924 48.7365C26.4924 48.7365 33.0483 49.0497 35.9703 49.735C35.9703 49.735 40.2943 46.5106 40.7898 40.0998C40.7898 40.0998 29.2279 38.7415 26.4924 48.7365Z" fill="white"/>
<path d="M24.4014 48.7413C24.4014 48.7413 17.9638 49.0166 14.9306 49.7872C14.9306 49.7872 10.5866 46.5006 10.0911 40.0897C10.0911 40.0897 21.6659 38.7463 24.4014 48.7413Z" fill="white"/>
<defs>
<linearGradient id="paint0_linear_2293_2351" x1="25.4404" y1="50.8541" x2="25.4404" y2="0.854168" gradientUnits="userSpaceOnUse">
<stop stop-color="#4C7B7B"/>
<stop offset="0.480572" stop-color="#9DAE73"/>
<stop offset="1" stop-color="#F0E16E"/>
</linearGradient>
</defs>
</svg>
