<svg width="61" height="61" viewBox="0 0 61 61" fill="none" xmlns="http://www.w3.org/2000/svg">
<g id="seda-logo 1">
<g id="Group 25">
<path id="Vector" d="M27.8595 24.0142C33.8705 30.0245 39.8599 36.0189 45.858 42.0045C46.6682 42.813 47.0601 43.7428 46.8373 44.8815C46.6083 46.0519 45.9021 46.8272 44.7701 47.1791C43.6138 47.5386 42.5879 47.2406 41.7401 46.4037C39.9256 44.6127 38.1321 42.8003 36.3289 40.9976C29.2049 33.8754 22.1097 26.7238 14.9347 19.6533C13.2192 17.9628 14.0356 14.9614 15.4252 14.1256C15.9778 13.7933 16.5663 13.6187 17.2015 13.6184C26.3754 13.6148 35.5493 13.6128 44.7232 13.6189C46.4466 13.6201 47.6938 14.7259 47.8511 16.4272C47.9678 17.6898 47.1834 19.1931 45.4677 19.5739C45.1985 19.6337 44.926 19.6506 44.6496 19.6505C37.8129 19.648 30.9762 19.6484 24.1396 19.6483C23.98 19.6483 23.8205 19.6483 23.6609 19.6483C23.6405 19.6825 23.62 19.7168 23.5996 19.751C25.0133 21.1658 26.427 22.5806 27.8595 24.0142Z" fill="black"/>
<path id="Vector_2" d="M20.7737 41.3821C24.0221 41.3828 27.2329 41.3802 30.4438 41.3874C30.9284 41.3885 31.4136 41.3982 31.889 41.5421C33.2607 41.9572 34.1171 43.3323 33.9588 44.6539C33.7631 46.2872 32.5475 47.3958 31.0142 47.3975C26.3665 47.4026 21.7188 47.4023 17.0712 47.3978C15.4982 47.3963 14.2281 46.201 14.0816 44.6061C13.9476 43.1469 15.0188 41.7395 16.5055 41.4518C16.8336 41.3884 17.1765 41.3868 17.5128 41.3843C18.5872 41.3766 19.6617 41.3819 20.7737 41.3821Z" fill="black"/>
</g>
</g>
</svg>
