<?xml version="1.0" encoding="UTF-8"?>
<svg version="1.1" xmlns="http://www.w3.org/2000/svg" width="1000" height="1000">
<path d="M0 0 C330 0 660 0 1000 0 C1000 330 1000 660 1000 1000 C670 1000 340 1000 0 1000 C0 670 0 340 0 0 Z " fill="#2C2C2C" transform="translate(0,0)"/>
<path d="M0 0 C12.21 0 24.42 0 37 0 C39.12074395 14.62582034 41.2370953 29.23953325 42.96020508 43.91796875 C43.48128615 48.26301897 44.08245637 52.54911061 44.92578125 56.84375 C46.63992568 65.96290117 47.50689801 75.22419337 48.5625 84.4375 C48.8936351 87.31849576 49.22584151 90.19934935 49.56126404 93.07984924 C49.76864734 94.86140101 49.97356253 96.6432423 50.17567444 98.42539978 C50.26924728 99.23046463 50.36282013 100.03552948 50.45922852 100.86499023 C50.53979996 101.56905502 50.6203714 102.27311981 50.7033844 102.9985199 C51.00667758 105.04505847 51.46529808 107.00254627 52 109 C53.59142705 104.56228474 54.61142534 100.2236018 55.4453125 95.5859375 C55.71588087 94.1061527 55.98672681 92.62641863 56.2578125 91.14672852 C56.39864258 90.37032013 56.53947266 89.59391174 56.68457031 88.79397583 C62.11427883 58.97234016 69.0590251 29.49914332 76 0 C86.23 0 96.46 0 107 0 C110.8127591 14.01749671 114.10114667 28.09176442 117.18652344 42.28564453 C118.01931406 46.08818849 118.87099442 49.88611418 119.7265625 53.68359375 C123.9941427 72.7043407 127.65134012 91.79680222 131 111 C133.2154399 108.7845601 132.79474206 103.83496919 133.12890625 100.75 C133.35749851 98.72188658 133.58643832 96.6938123 133.81567383 94.66577148 C133.93697662 93.58077362 134.05827942 92.49577576 134.18325806 91.37789917 C136.58128334 70.01874372 139.31945916 48.72028984 142.3125 27.4375 C142.48903107 26.17301025 142.66556213 24.90852051 142.84744263 23.60571289 C143.34817945 20.02684615 143.85443965 16.44881622 144.36328125 12.87109375 C144.51408142 11.79637314 144.66488159 10.72165253 144.82025146 9.61436462 C144.96118225 8.63617264 145.10211304 7.65798065 145.24731445 6.65014648 C145.36911575 5.79581528 145.49091705 4.94148407 145.6164093 4.06126404 C146 2 146 2 147 0 C158.22 0 169.44 0 181 0 C178.73956695 16.49442881 176.02064489 32.87565803 173.1484375 49.2734375 C172.6836098 51.93938471 172.21981107 54.60551064 171.75601196 57.27163696 C170.66894185 63.51748731 169.57885455 69.76280653 168.48745024 76.00790083 C166.52832803 87.21874446 164.57451019 98.43051327 162.62176955 109.64247 C161.82884571 114.19433457 161.03377533 118.74582111 160.23812866 123.29721069 C159.82326885 125.67518525 159.40844164 128.05316549 158.99365234 130.43115234 C158.80559525 131.50443283 158.61753815 132.57771332 158.42378235 133.68351746 C158.16317772 135.17959785 158.16317772 135.17959785 157.89730835 136.7059021 C157.74726538 137.56446997 157.5972224 138.42303783 157.44263268 139.30762291 C156.91274523 142.5307397 156.46193641 145.7664451 156 149 C140.82 149 125.64 149 110 149 C106.6232687 135.49307479 106.6232687 135.49307479 105.51367188 130.08007812 C105.26331177 128.86421021 105.01295166 127.64834229 104.75500488 126.39562988 C104.36580872 124.48276184 104.36580872 124.48276184 103.96875 122.53125 C103.68884299 121.16140097 103.40885249 119.79156899 103.12878418 118.42175293 C102.54539365 115.5647527 101.96415759 112.70732403 101.38427734 109.84960938 C100.79834921 106.96344576 100.20880743 104.07806078 99.61572266 101.19335938 C96.32536025 85.18706974 93.14488789 69.20908425 91 53 C89.41732513 58.20617865 88.30182169 63.36861884 87.37109375 68.7265625 C87.05937691 70.47821362 86.74752158 72.2298401 86.43554688 73.98144531 C86.19179321 75.36088318 86.19179321 75.36088318 85.94311523 76.76818848 C81.66773365 100.92481699 76.86975379 124.95559065 72 149 C57.15 149 42.3 149 27 149 C23.55402677 134.06744935 23.55402677 134.06744935 22.20996094 126.49829102 C22.05495621 125.64059616 21.89995148 124.78290131 21.74024963 123.8992157 C21.23533378 121.10130264 20.73485312 118.30261618 20.234375 115.50390625 C19.87458661 113.50596324 19.5144928 111.50807521 19.15411377 109.51023865 C18.20715104 104.25648314 17.263841 99.00207877 16.32147217 93.74749756 C14.83379051 85.45617087 13.34021231 77.16590331 11.84739685 68.87549973 C11.29901564 65.82830118 10.75156753 62.78093605 10.20422363 59.73355103 C8.45933889 50.02828171 6.69757052 40.32660982 4.89257812 30.63232422 C4.72669315 29.73983821 4.56080818 28.8473522 4.38989639 27.92782116 C3.61263232 23.74812098 2.83159087 19.5691935 2.04364014 15.39149475 C1.77018034 13.92630284 1.49683731 12.46108914 1.22363281 10.99584961 C0.98606262 9.73389267 0.74849243 8.47193573 0.50372314 7.17173767 C0 4 0 4 0 0 Z " fill="#EBEBEB" transform="translate(205,424)"/>
<path d="M0 0 C12.21 0 24.42 0 37 0 C43.20298079 11.74806968 49.36674315 23.515133 55.46655273 35.31713867 C58.25347806 40.70914367 61.04589195 46.09744877 63.87800598 51.46588135 C82.74643861 87.23931582 82.74643861 87.23931582 88 103 C87.67658101 96.66544883 87.24517617 90.38572573 86.28320312 84.11523438 C83.72435047 67.11991472 83.63558749 50.35211605 83.79400635 33.22052002 C83.83090126 28.79057359 83.84400428 24.36049295 83.86136627 19.93043518 C83.88993234 13.28669039 83.9476103 6.64379067 84 0 C95.55 0 107.1 0 119 0 C119 49.17 119 98.34 119 149 C106.79 149 94.58 149 82 149 C75.09511947 136.88990184 68.72168744 124.58366259 62.53540039 112.09765625 C59.08243526 105.13365199 55.56307157 98.21814049 51.875 91.375 C44.17188389 77.01140518 37.30474682 62.02594712 31 47 C31.11723701 49.37559202 31.24379376 51.75016709 31.375 54.125 C31.4059375 54.77082031 31.436875 55.41664063 31.46875 56.08203125 C31.72281484 60.52816599 32.2906885 64.83954694 33.01367188 69.234375 C34.21336844 77.55205065 34.25413844 85.72784167 34.1953125 94.1171875 C34.1915709 95.71143413 34.18872937 97.30568309 34.18673706 98.89993286 C34.1791907 103.04594551 34.15962243 107.19181249 34.1373291 111.33776855 C34.11302658 116.33903494 34.10404674 121.34035071 34.09242249 126.34165955 C34.07319046 133.89454024 34.03480598 141.44710288 34 149 C22.78 149 11.56 149 0 149 C0 99.83 0 50.66 0 0 Z " fill="#EAEAEA" transform="translate(476,424)"/>
<path d="M0 0 C31.35 0 62.7 0 95 0 C95 9.9 95 19.8 95 30 C75.53 30 56.06 30 36 30 C36 38.91 36 47.82 36 57 C52.5 57 69 57 86 57 C86 67.23 86 77.46 86 88 C69.5 88 53 88 36 88 C36 98.23 36 108.46 36 119 C56.13 119 76.26 119 97 119 C97 128.9 97 138.8 97 149 C64.99 149 32.98 149 0 149 C0 99.83 0 50.66 0 0 Z " fill="#EBEBEB" transform="translate(629,424)"/>
<path d="M0 0 C11.88 0 23.76 0 36 0 C36 49.17 36 98.34 36 149 C24.12 149 12.24 149 0 149 C0 99.83 0 50.66 0 0 Z " fill="#ECECEC" transform="translate(406,424)"/>
<path d="M0 0 C5.26139604 2.81776988 9.50319636 7.79265985 11.6953125 13.31640625 C12.52494895 21.14971785 12.78264964 28.92004668 7.6953125 35.31640625 C2.71281447 40.5822691 -1.80282881 43.33460826 -9.1171875 43.69140625 C-15.19532773 43.53787225 -19.6148755 41.83885217 -24.0625 37.66796875 C-29.74152585 31.38537493 -30.77983491 25.93338416 -30.609375 17.54296875 C-30.08242714 11.96272606 -28.50527216 8.29954183 -24.328125 4.53515625 C-17.00846696 -1.10763468 -9.18714219 -2.7249998 0 0 Z " fill="#EAEAEA" transform="translate(782.3046875,532.68359375)"/>
</svg>
